<mxfile host="app.diagrams.net" agent="Mozilla/5.0 (Windows NT 10.0; Win64; x64) AppleWebKit/537.36 (KHTML, like Gecko) Chrome/138.0.0.0 Safari/537.36" version="28.0.4">
  <diagram name="Pagina-1" id="jL19KRi2ANuLeMroQ9F8">
    <mxGraphModel dx="1916" dy="906" grid="1" gridSize="10" guides="1" tooltips="1" connect="1" arrows="1" fold="1" page="1" pageScale="1" pageWidth="827" pageHeight="1169" math="0" shadow="0">
      <root>
        <mxCell id="0" />
        <mxCell id="1" parent="0" />
        <mxCell id="GhtnbWtyAcZAWZzD4dHj-3" value="&lt;p style=&quot;margin:0px;margin-top:4px;text-align:center;&quot;&gt;&lt;i&gt;&amp;lt;&amp;lt;abstract&amp;gt;&amp;gt;&lt;/i&gt;&lt;br&gt;&lt;b&gt;Entity&lt;/b&gt;&lt;/p&gt;&lt;hr size=&quot;1&quot; style=&quot;border-style:solid;&quot;&gt;&lt;p style=&quot;margin:0px;margin-left:4px;&quot;&gt;&lt;br&gt;&lt;/p&gt;&lt;hr size=&quot;1&quot; style=&quot;border-style:solid;&quot;&gt;&lt;p style=&quot;margin:0px;margin-left:4px;&quot;&gt;+ getPosition(): Position&lt;/p&gt;&amp;nbsp;+ setPosition(Position): void&lt;br&gt;&lt;p style=&quot;margin:0px;margin-left:4px;&quot;&gt;+ getDimension(): BoundingBox&amp;nbsp;&lt;/p&gt;&lt;p style=&quot;margin:0px;margin-left:4px;&quot;&gt;+&lt;span style=&quot;background-color: transparent; color: light-dark(rgb(0, 0, 0), rgb(255, 255, 255));&quot;&gt;&amp;nbsp;setDimension(Boundingbox): void&lt;/span&gt;&lt;/p&gt;&lt;p style=&quot;margin:0px;margin-left:4px;&quot;&gt;&lt;span style=&quot;background-color: transparent; color: light-dark(rgb(0, 0, 0), rgb(255, 255, 255));&quot;&gt;+ update(Float): void&amp;nbsp;&lt;/span&gt;&lt;/p&gt;&lt;div&gt;&lt;span style=&quot;background-color: transparent; color: light-dark(rgb(0, 0, 0), rgb(255, 255, 255));&quot;&gt;&lt;br&gt;&lt;/span&gt;&lt;/div&gt;" style="verticalAlign=top;align=left;overflow=fill;html=1;whiteSpace=wrap;" parent="1" vertex="1">
          <mxGeometry x="90" y="510" width="210" height="150" as="geometry" />
        </mxCell>
        <mxCell id="GhtnbWtyAcZAWZzD4dHj-5" style="edgeStyle=orthogonalEdgeStyle;rounded=0;orthogonalLoop=1;jettySize=auto;html=1;endSize=12;" parent="1" source="GhtnbWtyAcZAWZzD4dHj-4" target="GhtnbWtyAcZAWZzD4dHj-3" edge="1">
          <mxGeometry relative="1" as="geometry">
            <Array as="points">
              <mxPoint x="413" y="585" />
            </Array>
          </mxGeometry>
        </mxCell>
        <mxCell id="P9yGr8595-tU0kD2MMD1-13" value="uses" style="edgeLabel;html=1;align=center;verticalAlign=middle;resizable=0;points=[];" vertex="1" connectable="0" parent="GhtnbWtyAcZAWZzD4dHj-5">
          <mxGeometry x="-0.0272" y="2" relative="1" as="geometry">
            <mxPoint as="offset" />
          </mxGeometry>
        </mxCell>
        <mxCell id="GhtnbWtyAcZAWZzD4dHj-4" value="&lt;p style=&quot;margin:0px;margin-top:4px;text-align:center;&quot;&gt;&lt;b&gt;GameEntityManager&lt;/b&gt;&lt;/p&gt;&lt;hr size=&quot;1&quot; style=&quot;border-style:solid;&quot;&gt;&lt;p style=&quot;margin:0px;margin-left:4px;&quot;&gt;&lt;b&gt;+ entities: List&amp;lt;Entity&amp;gt;&lt;/b&gt;&lt;/p&gt;&lt;hr size=&quot;1&quot; style=&quot;border-style:solid;&quot;&gt;&lt;p style=&quot;margin:0px;margin-left:4px;&quot;&gt;&lt;b&gt;+ getEntities(): List&amp;lt;Entity&amp;gt;&lt;br&gt;&lt;/b&gt;+ addEntity(Entity): Boolean&lt;/p&gt;&lt;p style=&quot;margin:0px;margin-left:4px;&quot;&gt;+ getMainCharacter(): Optional&amp;lt;MainCharacter&amp;gt;&lt;/p&gt;&lt;p style=&quot;margin:0px;margin-left:4px;&quot;&gt;+ loadEntities(List&amp;lt;String&amp;gt;,Boolean): void&lt;/p&gt;" style="verticalAlign=top;align=left;overflow=fill;html=1;whiteSpace=wrap;" parent="1" vertex="1">
          <mxGeometry x="390" y="510" width="250" height="150" as="geometry" />
        </mxCell>
        <mxCell id="P9yGr8595-tU0kD2MMD1-9" style="edgeStyle=orthogonalEdgeStyle;rounded=0;orthogonalLoop=1;jettySize=auto;html=1;endArrow=none;endFill=0;dashed=1;" edge="1" parent="1" source="GhtnbWtyAcZAWZzD4dHj-6">
          <mxGeometry relative="1" as="geometry">
            <mxPoint x="200" y="750" as="targetPoint" />
            <Array as="points">
              <mxPoint x="340" y="777" />
              <mxPoint x="340" y="750" />
            </Array>
          </mxGeometry>
        </mxCell>
        <mxCell id="GhtnbWtyAcZAWZzD4dHj-6" value="Ladder" style="swimlane;fontStyle=1;align=center;verticalAlign=top;childLayout=stackLayout;horizontal=1;startSize=26;horizontalStack=0;resizeParent=1;resizeParentMax=0;resizeLast=0;collapsible=1;marginBottom=0;whiteSpace=wrap;html=1;fontFamily=Helvetica;fontSize=11;fontColor=default;labelBackgroundColor=default;" parent="1" vertex="1">
          <mxGeometry x="353" y="760" width="67" height="34" as="geometry" />
        </mxCell>
        <mxCell id="GhtnbWtyAcZAWZzD4dHj-7" value="" style="line;strokeWidth=1;fillColor=none;align=left;verticalAlign=middle;spacingTop=-1;spacingLeft=3;spacingRight=3;rotatable=0;labelPosition=right;points=[];portConstraint=eastwest;strokeColor=inherit;fontFamily=Helvetica;fontSize=11;fontColor=default;labelBackgroundColor=default;" parent="GhtnbWtyAcZAWZzD4dHj-6" vertex="1">
          <mxGeometry y="26" width="67" height="8" as="geometry" />
        </mxCell>
        <mxCell id="P9yGr8595-tU0kD2MMD1-11" style="edgeStyle=orthogonalEdgeStyle;rounded=0;orthogonalLoop=1;jettySize=auto;html=1;endArrow=none;endFill=0;dashed=1;" edge="1" parent="1" source="GhtnbWtyAcZAWZzD4dHj-8">
          <mxGeometry relative="1" as="geometry">
            <mxPoint x="340" y="770" as="targetPoint" />
            <Array as="points">
              <mxPoint x="340" y="717" />
            </Array>
          </mxGeometry>
        </mxCell>
        <mxCell id="GhtnbWtyAcZAWZzD4dHj-8" value="Platform" style="swimlane;fontStyle=1;align=center;verticalAlign=top;childLayout=stackLayout;horizontal=1;startSize=26;horizontalStack=0;resizeParent=1;resizeParentMax=0;resizeLast=0;collapsible=1;marginBottom=0;whiteSpace=wrap;html=1;fontFamily=Helvetica;fontSize=11;fontColor=default;labelBackgroundColor=default;" parent="1" vertex="1">
          <mxGeometry x="353" y="700" width="67" height="34" as="geometry" />
        </mxCell>
        <mxCell id="GhtnbWtyAcZAWZzD4dHj-9" value="" style="line;strokeWidth=1;fillColor=none;align=left;verticalAlign=middle;spacingTop=-1;spacingLeft=3;spacingRight=3;rotatable=0;labelPosition=right;points=[];portConstraint=eastwest;strokeColor=inherit;fontFamily=Helvetica;fontSize=11;fontColor=default;labelBackgroundColor=default;" parent="GhtnbWtyAcZAWZzD4dHj-8" vertex="1">
          <mxGeometry y="26" width="67" height="8" as="geometry" />
        </mxCell>
        <mxCell id="P9yGr8595-tU0kD2MMD1-6" style="edgeStyle=orthogonalEdgeStyle;rounded=0;orthogonalLoop=1;jettySize=auto;html=1;endArrow=none;endFill=0;dashed=1;" edge="1" parent="1" source="GhtnbWtyAcZAWZzD4dHj-10">
          <mxGeometry relative="1" as="geometry">
            <mxPoint x="200" y="700" as="targetPoint" />
          </mxGeometry>
        </mxCell>
        <mxCell id="GhtnbWtyAcZAWZzD4dHj-10" value="Pauline" style="swimlane;fontStyle=1;align=center;verticalAlign=top;childLayout=stackLayout;horizontal=1;startSize=26;horizontalStack=0;resizeParent=1;resizeParentMax=0;resizeLast=0;collapsible=1;marginBottom=0;whiteSpace=wrap;html=1;fontFamily=Helvetica;fontSize=11;fontColor=default;labelBackgroundColor=default;" parent="1" vertex="1">
          <mxGeometry x="55" y="760" width="105" height="34" as="geometry" />
        </mxCell>
        <mxCell id="GhtnbWtyAcZAWZzD4dHj-11" value="" style="line;strokeWidth=1;fillColor=none;align=left;verticalAlign=middle;spacingTop=-1;spacingLeft=3;spacingRight=3;rotatable=0;labelPosition=right;points=[];portConstraint=eastwest;strokeColor=inherit;fontFamily=Helvetica;fontSize=11;fontColor=default;labelBackgroundColor=default;" parent="GhtnbWtyAcZAWZzD4dHj-10" vertex="1">
          <mxGeometry y="26" width="105" height="8" as="geometry" />
        </mxCell>
        <mxCell id="GhtnbWtyAcZAWZzD4dHj-12" value="DonkeyKong" style="swimlane;fontStyle=1;align=center;verticalAlign=top;childLayout=stackLayout;horizontal=1;startSize=26;horizontalStack=0;resizeParent=1;resizeParentMax=0;resizeLast=0;collapsible=1;marginBottom=0;whiteSpace=wrap;html=1;fontFamily=Helvetica;fontSize=11;fontColor=default;labelBackgroundColor=default;" parent="1" vertex="1">
          <mxGeometry x="55" y="700" width="105" height="34" as="geometry" />
        </mxCell>
        <mxCell id="GhtnbWtyAcZAWZzD4dHj-13" value="" style="line;strokeWidth=1;fillColor=none;align=left;verticalAlign=middle;spacingTop=-1;spacingLeft=3;spacingRight=3;rotatable=0;labelPosition=right;points=[];portConstraint=eastwest;strokeColor=inherit;fontFamily=Helvetica;fontSize=11;fontColor=default;labelBackgroundColor=default;" parent="GhtnbWtyAcZAWZzD4dHj-12" vertex="1">
          <mxGeometry y="26" width="105" height="8" as="geometry" />
        </mxCell>
        <mxCell id="P9yGr8595-tU0kD2MMD1-7" style="edgeStyle=orthogonalEdgeStyle;rounded=0;orthogonalLoop=1;jettySize=auto;html=1;endArrow=none;endFill=0;dashed=1;" edge="1" parent="1" source="GhtnbWtyAcZAWZzD4dHj-14">
          <mxGeometry relative="1" as="geometry">
            <mxPoint x="200" y="717" as="targetPoint" />
          </mxGeometry>
        </mxCell>
        <mxCell id="GhtnbWtyAcZAWZzD4dHj-14" value="Tank" style="swimlane;fontStyle=1;align=center;verticalAlign=top;childLayout=stackLayout;horizontal=1;startSize=26;horizontalStack=0;resizeParent=1;resizeParentMax=0;resizeLast=0;collapsible=1;marginBottom=0;whiteSpace=wrap;html=1;fontFamily=Helvetica;fontSize=11;fontColor=default;labelBackgroundColor=default;" parent="1" vertex="1">
          <mxGeometry x="239" y="700" width="51" height="34" as="geometry" />
        </mxCell>
        <mxCell id="GhtnbWtyAcZAWZzD4dHj-15" value="" style="line;strokeWidth=1;fillColor=none;align=left;verticalAlign=middle;spacingTop=-1;spacingLeft=3;spacingRight=3;rotatable=0;labelPosition=right;points=[];portConstraint=eastwest;strokeColor=inherit;fontFamily=Helvetica;fontSize=11;fontColor=default;labelBackgroundColor=default;" parent="GhtnbWtyAcZAWZzD4dHj-14" vertex="1">
          <mxGeometry y="26" width="51" height="8" as="geometry" />
        </mxCell>
        <mxCell id="P9yGr8595-tU0kD2MMD1-12" style="edgeStyle=orthogonalEdgeStyle;rounded=0;orthogonalLoop=1;jettySize=auto;html=1;dashed=1;endArrow=none;endFill=0;" edge="1" parent="1" source="GhtnbWtyAcZAWZzD4dHj-16">
          <mxGeometry relative="1" as="geometry">
            <mxPoint x="340" y="751" as="targetPoint" />
            <Array as="points">
              <mxPoint x="340" y="750" />
            </Array>
          </mxGeometry>
        </mxCell>
        <mxCell id="GhtnbWtyAcZAWZzD4dHj-16" value="Coin" style="swimlane;fontStyle=1;align=center;verticalAlign=top;childLayout=stackLayout;horizontal=1;startSize=26;horizontalStack=0;resizeParent=1;resizeParentMax=0;resizeLast=0;collapsible=1;marginBottom=0;whiteSpace=wrap;html=1;fontFamily=Helvetica;fontSize=11;fontColor=default;labelBackgroundColor=default;" parent="1" vertex="1">
          <mxGeometry x="480" y="734" width="51" height="34" as="geometry" />
        </mxCell>
        <mxCell id="GhtnbWtyAcZAWZzD4dHj-17" value="" style="line;strokeWidth=1;fillColor=none;align=left;verticalAlign=middle;spacingTop=-1;spacingLeft=3;spacingRight=3;rotatable=0;labelPosition=right;points=[];portConstraint=eastwest;strokeColor=inherit;fontFamily=Helvetica;fontSize=11;fontColor=default;labelBackgroundColor=default;" parent="GhtnbWtyAcZAWZzD4dHj-16" vertex="1">
          <mxGeometry y="26" width="51" height="8" as="geometry" />
        </mxCell>
        <mxCell id="P9yGr8595-tU0kD2MMD1-8" style="edgeStyle=orthogonalEdgeStyle;rounded=0;orthogonalLoop=1;jettySize=auto;html=1;endArrow=none;endFill=0;dashed=1;" edge="1" parent="1" source="P9yGr8595-tU0kD2MMD1-1">
          <mxGeometry relative="1" as="geometry">
            <mxPoint x="200" y="777" as="targetPoint" />
          </mxGeometry>
        </mxCell>
        <mxCell id="P9yGr8595-tU0kD2MMD1-1" value="Fire" style="swimlane;fontStyle=1;align=center;verticalAlign=top;childLayout=stackLayout;horizontal=1;startSize=26;horizontalStack=0;resizeParent=1;resizeParentMax=0;resizeLast=0;collapsible=1;marginBottom=0;whiteSpace=wrap;html=1;fontFamily=Helvetica;fontSize=11;fontColor=default;labelBackgroundColor=default;" vertex="1" parent="1">
          <mxGeometry x="239" y="760" width="51" height="34" as="geometry" />
        </mxCell>
        <mxCell id="P9yGr8595-tU0kD2MMD1-2" value="" style="line;strokeWidth=1;fillColor=none;align=left;verticalAlign=middle;spacingTop=-1;spacingLeft=3;spacingRight=3;rotatable=0;labelPosition=right;points=[];portConstraint=eastwest;strokeColor=inherit;fontFamily=Helvetica;fontSize=11;fontColor=default;labelBackgroundColor=default;" vertex="1" parent="P9yGr8595-tU0kD2MMD1-1">
          <mxGeometry y="26" width="51" height="8" as="geometry" />
        </mxCell>
        <mxCell id="P9yGr8595-tU0kD2MMD1-4" style="edgeStyle=orthogonalEdgeStyle;rounded=0;orthogonalLoop=1;jettySize=auto;html=1;dashed=1;endArrow=block;endFill=0;endSize=12;" edge="1" parent="1" source="GhtnbWtyAcZAWZzD4dHj-12">
          <mxGeometry relative="1" as="geometry">
            <mxPoint x="200" y="660" as="targetPoint" />
            <Array as="points">
              <mxPoint x="200" y="717" />
              <mxPoint x="200" y="675" />
              <mxPoint x="200" y="675" />
            </Array>
          </mxGeometry>
        </mxCell>
      </root>
    </mxGraphModel>
  </diagram>
</mxfile>
